<svg width="24" height="24" viewBox="0 0 24 24" fill="none" xmlns="http://www.w3.org/2000/svg">
<path d="M9.29 21.0002C8.46382 20.9962 7.64668 20.8279 6.88614 20.5052C6.1256 20.1824 5.43686 19.7116 4.86 19.1202C4.28746 18.5775 3.82755 17.9273 3.50658 17.2067C3.18561 16.4861 3.00987 15.7093 2.98944 14.9208C2.96901 14.1322 3.10427 13.3474 3.38749 12.6111C3.67071 11.8749 4.09633 11.2017 4.64 10.6302L12 3.20016C12.393 2.80783 12.8615 2.49923 13.3771 2.29298C13.8927 2.08674 14.4448 1.98712 15 2.00016C15.5947 2.00218 16.1831 2.12259 16.7307 2.35437C17.2784 2.58615 17.7745 2.92466 18.19 3.35016C19.017 4.14639 19.4966 5.23667 19.5247 6.38433C19.5527 7.53199 19.1271 8.64442 18.34 9.48015L10.94 16.9102C10.703 17.1488 10.4209 17.3379 10.1102 17.4667C9.79951 17.5954 9.46632 17.6612 9.13 17.6602C8.76667 17.6606 8.40693 17.5883 8.07201 17.4475C7.7371 17.3067 7.43379 17.1001 7.18 16.8402C6.67272 16.349 6.37977 15.6775 6.36479 14.9716C6.34981 14.2657 6.61402 13.5824 7.1 13.0702L13.93 6.21016C14.1244 6.08106 14.3578 6.024 14.5898 6.04887C14.8218 6.07374 15.0378 6.17896 15.2004 6.34632C15.3631 6.51367 15.462 6.73263 15.4802 6.96526C15.4984 7.1979 15.4346 7.42957 15.3 7.62016L8.47 14.4802C8.3561 14.6174 8.30067 14.7938 8.31563 14.9715C8.3306 15.1492 8.41476 15.3139 8.55 15.4302C8.69071 15.5718 8.8804 15.6542 9.08 15.6602C9.15393 15.6612 9.22734 15.6476 9.296 15.6202C9.36465 15.5927 9.42719 15.5519 9.48 15.5002L16.87 8.07016C17.2848 7.60934 17.5016 7.00379 17.4735 6.38441C17.4455 5.76502 17.1748 5.18157 16.72 4.76016C16.2976 4.3216 15.7231 4.06162 15.1149 4.03371C14.5066 4.00581 13.9108 4.21211 13.45 4.61016L6.06 12.0002C5.70064 12.3861 5.42116 12.8394 5.23762 13.3337C5.05409 13.8281 4.97013 14.354 4.99058 14.8809C5.01102 15.4079 5.13547 15.9256 5.35676 16.4043C5.57805 16.883 5.89181 17.3132 6.28 17.6702C6.66927 18.0737 7.13506 18.3956 7.65016 18.6171C8.16525 18.8386 8.71932 18.9552 9.28 18.9602C9.76341 18.9641 10.2428 18.8725 10.6908 18.6905C11.1387 18.5086 11.5462 18.24 11.89 17.9002L19.28 10.4702C19.3726 10.3769 19.4826 10.3028 19.6038 10.2521C19.725 10.2014 19.8551 10.1751 19.9865 10.1746C20.1179 10.1741 20.2481 10.1996 20.3696 10.2494C20.4912 10.2993 20.6018 10.3726 20.695 10.4652C20.7882 10.5577 20.8623 10.6678 20.913 10.789C20.9637 10.9102 20.9901 11.0402 20.9906 11.1716C20.991 11.303 20.9656 11.4332 20.9157 11.5548C20.8659 11.6764 20.7926 11.7869 20.7 11.8802L13.31 19.3102C12.7853 19.8441 12.1597 20.2685 11.4696 20.5586C10.7795 20.8487 10.0386 20.9988 9.29 21.0002Z" fill="black"/>
</svg>
